<?xml version="1.0" standalone="no"?>
<!DOCTYPE svg PUBLIC "-//W3C//DTD SVG 20010904//EN"
 "http://www.w3.org/TR/2001/REC-SVG-20010904/DTD/svg10.dtd">
<svg version="1.0" xmlns="http://www.w3.org/2000/svg"
 width="1266.000000pt" height="1266.000000pt" viewBox="0 0 1266.000000 1266.000000"
 preserveAspectRatio="xMidYMid meet">
<metadata>
Created by potrace 1.11, written by Peter Selinger 2001-2013
</metadata>
<g transform="translate(0.000000,1266.000000) scale(0.100000,-0.100000)"
fill="#000000" stroke="none">
<path d="M55 10428 c-11 -7 -27 -18 -35 -27 -13 -13 -15 -479 -18 -4055 -3
-3726 -2 -4043 14 -4072 9 -18 27 -37 40 -43 35 -16 12512 -16 12547 0 13 6
31 23 40 39 16 26 17 315 17 4059 0 2868 -3 4037 -11 4054 -6 13 -23 31 -39
40 -26 16 -465 17 -6282 17 -4709 -1 -6258 -3 -6273 -12z"/>
</g>
</svg>
