<?xml version="1.0" standalone="no"?>
<!DOCTYPE svg PUBLIC "-//W3C//DTD SVG 20010904//EN"
 "http://www.w3.org/TR/2001/REC-SVG-20010904/DTD/svg10.dtd">
<svg version="1.0" xmlns="http://www.w3.org/2000/svg"
 width="1266.000000pt" height="1266.000000pt" viewBox="0 0 1266.000000 1266.000000"
 preserveAspectRatio="xMidYMid meet">
<metadata>
Created by potrace 1.11, written by Peter Selinger 2001-2013
</metadata>
<g transform="translate(0.000000,1266.000000) scale(0.100000,-0.100000)"
fill="#000000" stroke="none">
<path d="M65 12651 c-11 -5 -29 -19 -40 -31 -20 -22 -20 -36 -20 -6291 l0
-6269 28 -27 27 -28 6270 0 6270 0 27 28 28 27 0 6270 0 6270 -28 27 -27 28
-6258 2 c-3441 1 -6266 -2 -6277 -6z m8236 -4952 l29 -31 0 -169 0 -169 -2000
0 -2000 0 0 171 0 171 31 29 31 29 1940 0 1940 0 29 -31z m29 -1591 c0 -973
-1 -1025 -19 -1063 -22 -48 -54 -79 -103 -100 -33 -13 -239 -15 -1878 -15
-1639 0 -1845 2 -1878 15 -49 21 -81 52 -103 100 -18 38 -19 90 -19 1063 l0
1022 2000 0 2000 0 0 -1022z"/>
<path d="M7201 6521 c-13 -3 -34 -19 -45 -34 -19 -25 -21 -42 -21 -157 0 -115
2 -132 21 -157 11 -15 32 -31 45 -34 13 -4 160 -7 327 -8 412 -1 397 -9 397
199 0 208 15 200 -397 199 -167 -1 -314 -4 -327 -8z"/>
<path d="M4750 6310 c-16 -16 -20 -33 -20 -80 0 -47 4 -64 20 -80 20 -20 33
-20 980 -20 947 0 960 0 980 20 16 16 20 33 20 80 0 47 -4 64 -20 80 -20 20
-33 20 -980 20 -947 0 -960 0 -980 -20z"/>
<path d="M4750 5710 c-16 -16 -20 -33 -20 -80 0 -108 -49 -100 600 -100 649 0
600 -8 600 100 0 108 49 100 -600 100 -547 0 -560 0 -580 -20z"/>
<path d="M7150 5710 c-16 -16 -20 -33 -20 -80 0 -105 -21 -100 400 -100 421 0
400 -5 400 100 0 105 21 100 -400 100 -347 0 -361 -1 -380 -20z"/>
</g>
</svg>
